# xmcd
#
# Track frame offsets: 
#        150
#        25267
#        40370
#        66240
#        80270
#        101155
#        115532
#        140967
#        156337
#        177112
#
# Disc length: 2699 seconds
#
# Revision: 0
# Processed by: cddbd v1.5.2PL0 Copyright (c) Steve Scherf et al.
# Submitted via: ExactAudioCopy v1.0b3
#
DISCID=860a890a
DTITLE=Various Artist - Xuan Ca
DYEAR=1993
DGENRE=
TTITLE0=Phuong Mai - Cau chuyen dau nam
TTITLE1=Thanh Tuyen - Phien gac dem Xuan
TTITLE2=Tuan Vu - Mua Xuan la kho
TTITLE3=Nhu Mai - Hat mung Xuan
TTITLE4=Huong Lan - Canh thiep dau Xuan
TTITLE5=Thuy Vi - Diep khuc mua Xuan
TTITLE6=Tuan Vu - Dam cuoi dau Xuan
TTITLE7=Thanh Mai - Xuan va tuoi tre
TTITLE8=Quoc Anh - Ngay Xuan vui cuoi
TTITLE9=Mai Huong - Ca khuc mung Xuan
EXTD=
EXTT0=
EXTT1=
EXTT2=
EXTT3=
EXTT4=
EXTT5=
EXTT6=
EXTT7=
EXTT8=
EXTT9=
PLAYORDER=
